<?xml version="1.0" encoding="iso-8859-1"?>
<!-- Generator: Adobe Illustrator 16.0.0, SVG Export Plug-In . SVG Version: 6.00 Build 0)  -->
<!DOCTYPE svg PUBLIC "-//W3C//DTD SVG 1.1//EN" "http://www.w3.org/Graphics/SVG/1.1/DTD/svg11.dtd">
<svg version="1.1" id="Capa_1" xmlns="http://www.w3.org/2000/svg" xmlns:xlink="http://www.w3.org/1999/xlink" x="0px" y="0px"
	 width="930.855px" height="930.856px" viewBox="0 0 930.855 930.856" style="enable-background:new 0 0 930.855 930.856;"
	 xml:space="preserve">
<g>
	<g>
		<path d="M683.953,50.278c-94.2,0-176.2,52.3-218.5,129.4c-42.4-77.1-124.3-129.4-218.5-129.4c-90.2,0-172.1,52.8-215.3,131
			c-51.4,92.9-33.8,195.3,7.3,288.5c0.1,0.199,0.2,0.4,0.3,0.6h204.1l46.8-84.299c9.5-17.101,34.199-17.2,43.699-0.101l85.9,153.601
			l132.901-279.701c9.5-20.1,38.6-18.7,46.1,2.2l75.6,208.2h217.2c0.101-0.199,0.2-0.4,0.3-0.6c41.2-93.201,58.7-195.601,7.4-288.5
			C856.053,103.078,774.053,50.278,683.953,50.278z"/>
		<path d="M615.453,529.278l-46.4-128l-123,258.901c-8.7,18.4-34.5,19.199-44.5,1.5l-89.399-159.9l-17.301,31.1
			c-4.399,7.9-12.8,12.9-21.899,12.9h-188.6c103.4,141.699,304.1,287.6,363.9,329.4c10.3,7.199,24.1,7.199,34.401,0
			c59.8-41.9,260.5-187.801,363.899-329.4h-207.5C628.453,545.778,619.053,539.178,615.453,529.278z"/>
	</g>
</g>
<g>
</g>
<g>
</g>
<g>
</g>
<g>
</g>
<g>
</g>
<g>
</g>
<g>
</g>
<g>
</g>
<g>
</g>
<g>
</g>
<g>
</g>
<g>
</g>
<g>
</g>
<g>
</g>
<g>
</g>
</svg>
